<svg id="Capa_4" data-name="Capa 4" xmlns="http://www.w3.org/2000/svg" viewBox="0 0 298.99 304.04"><defs><style>.cls-1{fill:#6f584b;}.cls-2{fill:#fdd5a6;}.cls-3{fill:#e6aa3b;}.cls-4{fill:#85c06a;}.cls-5{fill:#020202;}</style></defs><title>abonar</title><path class="cls-1" d="M262.55,441.12c-18.1-30.34-49.32-50.38-84.82-50.38s-66.72,20-84.81,50.38Z" transform="translate(-14.18 -260.6)"/><path class="cls-2" d="M261.55,480.82,218.94,458l57.33-60.87a18.93,18.93,0,0,1,26.69-2l.37.32a19.46,19.46,0,0,1,2.15,27.5Z" transform="translate(-14.18 -260.6)"/><path class="cls-2" d="M211,467.54l-126.81,9.2L62.4,456c0-11.37,34.41-29.62,45.79-29.62H211A20.59,20.59,0,0,1,231.59,447h0A20.59,20.59,0,0,1,211,467.54Z" transform="translate(-14.18 -260.6)"/><path class="cls-2" d="M261.55,480.82S246.91,505.33,226.49,505s-89.2,2-89.2,2-10.55,2.05-12.93,5.45-40.17-35.74-40.17-35.74L218.94,458" transform="translate(-14.18 -260.6)"/><path d="M119.06,523.37,52.58,456.9l3.34-3.18c.11-.11,11.22-10.72,19.19-19.44,9.14-10,30.52-11.53,32.93-11.67h.3l107.46,1,.5.11c10.66,2.49,18.81,10.65,20.28,20.3,2.11,13.88-9,24.1-20.45,26.67-7.56,1.69-10.63,1.69-12,1.52q-.3,0-.6,0H162.84a4.5,4.5,0,0,1-4.5-4.5h0a4.5,4.5,0,0,1,4.5-4.5h42l.43.1c.79.07,3.78-.22,8.94-1.37,7.51-1.69,14.8-8.05,13.51-16.53-.9-5.92-6.07-11-13-12.77h-.47l-105.66-1h-.36c-5.79.39-20.93,2.65-26.49,8.73C77.52,445,72.54,450,68.66,453.87a4.49,4.49,0,0,0,0,6.37l48.19,48.19a4.49,4.49,0,0,0,5.7.55c4.55-3.07,10.7-6.31,16-5.94,5.84.4,61.38.17,89.94,0,.13,0,17.28-.43,24-11.39,7.92-12.87,43.24-63.22,46.66-68.09l.18-.28c.23-.39.54-.88.88-1.43a36.34,36.34,0,0,0,2.5-4.38c2.82-6.95,1.31-14.87-3.43-18-5.22-3.47-17.25-2.59-26.24,8.09l-.18.2-17.81,18.7a4.49,4.49,0,0,1-6.36.15h0a4.49,4.49,0,0,1-.15-6.36l17.71-18.6c11.86-14,28.62-15.91,38-9.68,8.31,5.52,11.23,17.94,6.79,28.89a40.34,40.34,0,0,1-3.22,5.8c-.36.57-.67,1.05-.85,1.37l-.25.4c-.38.55-38.57,54.94-46.57,67.95-9.36,15.21-30.7,15.66-31.61,15.67-3.41,0-83,.51-90.63,0-3.87-.24-11.69,4.94-15.75,8.55Zm86.22-60.06h0Z" transform="translate(-14.18 -260.6)"/><rect class="cls-3" x="21.19" y="484.68" width="109.54" height="40.81" transform="translate(365.21 -166.37) rotate(45)"/><path d="M46.63,445.45l-31,30.26a4.86,4.86,0,0,0-.08,6.88l63.25,64.75a4.87,4.87,0,0,0,6.77.19l.13-.12a4.87,4.87,0,0,0,.19-7L29.38,482.54a4.86,4.86,0,0,1,.08-6.88l16.8-16.41a4.87,4.87,0,0,1,6.88.08l65.27,66.83a4.87,4.87,0,0,1-.08,6.88L99.66,551.28l.07.08-5.26,4.82a4.87,4.87,0,0,0-.19,7h0a4.87,4.87,0,0,0,6.88.08l31-30.26a4.87,4.87,0,0,0,.08-6.88L53.51,445.53A4.87,4.87,0,0,0,46.63,445.45Z" transform="translate(-14.18 -260.6)"/><path class="cls-4" d="M129.24,269.93v.17c14.95-1.4,30.19,6.3,39.63,21.87a58.81,58.81,0,0,1,8.21,26.36v11.28h0v2.25H160.53v-.26h-33v-.17c-14.95,1.4-30.2-6.3-39.64-21.88a58.68,58.68,0,0,1-8.2-26.37V269.93Z" transform="translate(-14.18 -260.6)"/><path d="M139.13,343.69a55.3,55.3,0,0,1-8.94-.72c-44.43-7.3-63.29-66.93-65.3-73.71h0A6.33,6.33,0,0,1,71,261.14h39.59a4.87,4.87,0,0,0,.66,0,74.89,74.89,0,0,1,18.08.09,76.69,76.69,0,0,1,32.43,12.21,6.31,6.31,0,0,1,1.43,9.15h0a6.31,6.31,0,0,1-8.41,1.4,64,64,0,0,0-27.06-10.21,61.86,61.86,0,0,0-15.62,0l-.79.05H79.83c6.27,16.35,23.09,51.88,52.41,56.7a44.37,44.37,0,0,0,14,0l.49-.07h18a6.32,6.32,0,0,1,6.32,6.32h0a6.32,6.32,0,0,1-6.32,6.32H148.16a5.93,5.93,0,0,0-.84.06A58.15,58.15,0,0,1,139.13,343.69Z" transform="translate(-14.18 -260.6)"/><path d="M108.92,292.07a61.55,61.55,0,0,0,19.27,18.76" transform="translate(-14.18 -260.6)"/><path d="M128.33,310.62a5.5,5.5,0,0,1-7.94,1.56,67,67,0,0,1-12.62-12.29,5.48,5.48,0,0,1,1.36-8h0a5.53,5.53,0,0,1,7.36,1.25,56.83,56.83,0,0,0,4.76,5.29,55.26,55.26,0,0,0,5.64,4.83,5.53,5.53,0,0,1,1.44,7.32Z" transform="translate(-14.18 -260.6)"/><path class="cls-4" d="M224.82,270.64v.16a50.17,50.17,0,0,0-45.31,21.87A53.7,53.7,0,0,0,170.12,319v11.27h0v60.43H189V332.3h37.69v-.17a50.16,50.16,0,0,0,45.32-21.88,53.7,53.7,0,0,0,9.39-26.37V270.64Z" transform="translate(-14.18 -260.6)"/><path d="M168.6,375.52h0a5.54,5.54,0,0,1-5.54-5.53v-41.2a82.94,82.94,0,0,1,7.45-28.94C179.78,280,196,268,217.38,265.07c35.83-4.83,63.71-1.61,64.88-1.47l5.54.66-.38,5.57a108.94,108.94,0,0,1-8.52,33.24c-10.1,22.78-26.93,35.13-48.68,35.72-15.67.43-27,.61-33.8.56v30.19a5.16,5.16,0,0,1-5.09,5.16h-.69a5.89,5.89,0,0,1-6-5.89v-34h0a7.17,7.17,0,0,1,7-7.12l4.72-.11h0c4.86,0,14.47,0,33.48-.56,17.06-.46,29.89-10,38.15-28.47A97.8,97.8,0,0,0,275,274.76a288,288,0,0,0-56,1.94c-17.48,2.35-30.19,11.81-37.79,28.11a71.84,71.84,0,0,0-6.36,24.34v40.17A6.2,6.2,0,0,1,168.6,375.52Z" transform="translate(-14.18 -260.6)"/><path d="M233,304.17l-.23-.47a5.69,5.69,0,0,1,2.23-7.35,39.69,39.69,0,0,0,5.51-4.23,38,38,0,0,0,5.42-6.2,6,6,0,0,1,7.52-1.83l.48.24a5.67,5.67,0,0,1,2.27,8.38,50.6,50.6,0,0,1-7.11,8.11,51.42,51.42,0,0,1-7.43,5.68A6.08,6.08,0,0,1,233,304.17Z" transform="translate(-14.18 -260.6)"/><path class="cls-5" d="M120,409.52h0a5.5,5.5,0,0,1,1.28-7.91A99.88,99.88,0,0,1,176,384.48h1a99.77,99.77,0,0,1,55.19,16.8,5.49,5.49,0,0,1,1.33,7.9h0a5.49,5.49,0,0,1-7.41,1.27,88,88,0,0,0-98.66.29A5.48,5.48,0,0,1,120,409.52Z" transform="translate(-14.18 -260.6)"/></svg>