<?xml version="1.0" encoding="iso-8859-1"?>
<!-- Generator: Adobe Illustrator 19.0.0, SVG Export Plug-In . SVG Version: 6.00 Build 0)  -->
<svg version="1.1" id="Layer_1" xmlns="http://www.w3.org/2000/svg" xmlns:xlink="http://www.w3.org/1999/xlink" x="0px" y="0px"
	 viewBox="0 0 479.65 479.65" style="enable-background:new 0 0 479.65 479.65;" xml:space="preserve">
<g>
	<path d="M448.493,192.66l-0.328-8.108l-6.966-4.162c-19.236-11.494-39.995-17.569-60.034-17.569
		c-16.943,0-32.642,4.226-46.662,12.559c-28.592,16.996-45.629,49.098-46.633,87.006l-33.045,19.643v-68.253
		c39.673-24.359,63.086-62.188,63.086-102.689c0-43.109-26.523-83.194-70.949-107.227L239.825,0l-7.137,3.861
		c-44.426,24.033-70.949,64.118-70.949,107.227c0,40.501,23.414,78.329,63.086,102.689v68.253l-33.045-19.643
		c-1.004-37.908-18.041-70.01-46.633-87.006c-14.02-8.333-29.719-12.559-46.662-12.559c-20.039,0-40.798,6.075-60.034,17.569
		l-6.966,4.162l-0.328,8.108c-1.693,41.844,15.72,77.778,46.58,96.122c14.02,8.334,29.719,12.56,46.662,12.56
		c17.296,0,35.127-4.536,52.053-13.166l48.373,28.755v16.922h-74.62l14.539,145.798h150.162l14.539-145.798h-74.62V316.93
		l48.373-28.755c16.926,8.63,34.757,13.166,52.053,13.166c16.942,0,32.643-4.226,46.662-12.559
		C432.773,270.438,450.186,234.505,448.493,192.66z M124.399,271.341c-11.473,0-22.015-2.809-31.333-8.347
		c-19.292-11.468-30.91-33.841-31.945-60.827c12.376-6.134,25.155-9.346,37.364-9.346c11.473,0,22.015,2.808,31.333,8.347
		c14.533,8.639,24.708,23.469,29.288,41.796l-39.234-23.322l-15.329,25.788l39.252,23.333
		C137.266,270.463,130.755,271.341,124.399,271.341z M287.749,449.65h-95.848l-8.556-85.798h112.959L287.749,449.65z
		 M191.739,111.088c0-29.652,17.824-57.844,48.086-76.695c30.263,18.851,48.086,47.043,48.086,76.695
		c0,24.351-12.028,47.712-33.086,65.729v-65.729h-30v65.729C203.767,158.8,191.739,135.439,191.739,111.088z M386.584,262.994
		c-9.318,5.539-19.859,8.347-31.333,8.347c-6.357,0-12.867-0.879-19.395-2.579l39.252-23.332l-15.329-25.788l-39.234,23.322
		c4.58-18.327,14.755-33.157,29.288-41.796c9.318-5.539,19.859-8.347,31.333-8.347c12.209,0,24.988,3.212,37.364,9.346
		C417.494,229.153,405.875,251.526,386.584,262.994z"/>
</g>
<g>
</g>
<g>
</g>
<g>
</g>
<g>
</g>
<g>
</g>
<g>
</g>
<g>
</g>
<g>
</g>
<g>
</g>
<g>
</g>
<g>
</g>
<g>
</g>
<g>
</g>
<g>
</g>
<g>
</g>
</svg>
