<?xml version="1.0" encoding="iso-8859-1"?>
<!-- Generator: Adobe Illustrator 19.0.0, SVG Export Plug-In . SVG Version: 6.00 Build 0)  -->
<svg version="1.1" id="Layer_1" xmlns="http://www.w3.org/2000/svg" xmlns:xlink="http://www.w3.org/1999/xlink" x="0px" y="0px"
	 viewBox="0 0 512 512" style="enable-background:new 0 0 512 512;" xml:space="preserve">
<polygon style="fill:#F0F0F0;" points="267.253,151.777 256,265.891 217.527,265.891 217.538,151.777 "/>
<path style="fill:#FAB43E;" d="M492.596,384.473h-67.516l-62.959,37.798v4.04c0,18.646,15.112,33.758,33.758,33.758h96.717
	l-22.505-37.798L492.596,384.473z"/>
<rect x="256" y="151.777" style="fill:#C4C4C4;" width="38.473" height="114.114"/>
<circle style="fill:#FAB43E;" cx="256" cy="23.451" r="23.451"/>
<path style="fill:#3F993A;" d="M256,46.901c-21.234,0-38.462,17.217-38.462,38.462v66.414h76.935V85.363
	C294.473,64.118,277.245,46.901,256,46.901z"/>
<path style="fill:#566955;" d="M320.137,160.212H191.871c-22.653,0-41.084-18.43-41.084-41.084c0-4.662,3.779-8.44,8.44-8.44
	c4.661,0,8.44,3.778,8.44,8.44c0,13.346,10.858,24.205,24.205,24.205h128.267c13.346,0,24.205-10.858,24.205-24.205
	c0-4.662,3.778-8.44,8.44-8.44s8.44,3.778,8.44,8.44C361.221,141.782,342.791,160.212,320.137,160.212z"/>
<path style="fill:#FAB43E;" d="M86.921,384.473H19.404l22.505,37.798l-22.505,37.798h96.717c18.646,0,33.758-15.112,33.758-33.758
	v-4.04L86.921,384.473z"/>
<path style="fill:#F53635;" d="M321.389,226.766c-28.287,0-52.876,15.835-65.386,39.124c-12.514-23.285-37.097-39.124-65.383-39.124
	c-41.319,0-74.814,33.495-74.814,74.814c0,16.938,5.631,32.556,15.119,45.096L256.005,512l125.079-165.323
	c9.488-12.54,15.12-28.159,15.12-45.096C396.204,260.261,362.708,226.766,321.389,226.766z"/>
<rect x="86.68" y="346.675" style="fill:#FFD691;" width="338.651" height="75.596"/>
<g>
</g>
<g>
</g>
<g>
</g>
<g>
</g>
<g>
</g>
<g>
</g>
<g>
</g>
<g>
</g>
<g>
</g>
<g>
</g>
<g>
</g>
<g>
</g>
<g>
</g>
<g>
</g>
<g>
</g>
</svg>
