<?xml version="1.0" encoding="iso-8859-1"?>
<!-- Generator: Adobe Illustrator 19.0.0, SVG Export Plug-In . SVG Version: 6.00 Build 0)  -->
<svg version="1.1" id="Layer_1" xmlns="http://www.w3.org/2000/svg" xmlns:xlink="http://www.w3.org/1999/xlink" x="0px" y="0px"
	 viewBox="0 0 495 495" style="enable-background:new 0 0 495 495;" xml:space="preserve">
<g>
	<path style="fill:#00DDC2;" d="M111.36,307.403V9.989L22.004,129.577C7.609,148.905,0,171.887,0,196.042
		C0,257.447,49.956,307.403,111.36,307.403z"/>
	<path style="fill:#00CCB3;" d="M222.72,196.042c0-24.154-7.609-47.138-22.022-66.489L111.36,9.989v297.414
		C172.764,307.403,222.72,257.447,222.72,196.042z"/>
	<path style="fill:#FFC477;" d="M405.463,209.318c9.462,0.031,18.076,3.83,24.371,9.988c6.412,6.287,10.415,15.002,10.51,24.661
		c0.19,19.331-15.325,35.154-34.656,35.344H333.61l-127.94,125.45c-6.82,6.82-15.78,10.24-24.73,10.25c-0.02,0-145.94,0-145.94,0
		c-19.33,0-35,15.67-35,35s15.67,35,35,35h199.14l192.29-134.13H495v-141.57L405.463,209.318z"/>
	<path style="fill:#FFDAAA;" d="M180.94,415.011c8.95-0.01,17.91-3.43,24.73-10.25l127.94-125.45h72.078
		c19.331-0.19,34.846-16.013,34.656-35.344c-0.095-9.659-4.098-18.374-10.496-24.647c-6.309-6.172-14.923-9.971-24.385-10.002
		c-0.155,0-0.308-0.009-0.463-0.007h-35.696H322.11c-11,0-26.36,6.37-34.14,14.15l-131.8,131.8c-13.67,13.67-13.67,35.83,0,49.5
		C163,411.591,171.96,415.011,180.94,415.011z"/>
</g>
<g>
</g>
<g>
</g>
<g>
</g>
<g>
</g>
<g>
</g>
<g>
</g>
<g>
</g>
<g>
</g>
<g>
</g>
<g>
</g>
<g>
</g>
<g>
</g>
<g>
</g>
<g>
</g>
<g>
</g>
</svg>
