<svg id="Capa_3" data-name="Capa 3" xmlns="http://www.w3.org/2000/svg" viewBox="0 0 297.77 252.03"><defs><style>.cls-1{fill:#a5b9db;}.cls-2{fill:#c2d0e8;}.cls-3{fill:#14427c;}.cls-4{fill:#225aa7;}.cls-5{fill:#2e66b0;}.cls-6{fill:#004d9c;}.cls-7{fill:#4d4c4c;}.cls-8{fill:#8ebf22;}.cls-9{fill:#a5c721;}.cls-10{fill:#82ac29;}</style></defs><title>regar</title><polygon class="cls-1" points="248.92 0 297.77 64.51 263.22 59.91 248.92 45.13 248.92 0"/><path class="cls-2" d="M263.71,575.85v44.6s6.64,7.49,7.49,7.49,34.22,1.7,34.22,1.7Z" transform="translate(-14.8 -575.32)"/><path class="cls-3" d="M176.34,646.17c-.11-4.4-1.11-23-16-38.12a56.36,56.36,0,0,0-29.61-15.66c-10.4-2.44-39.49.3-52.09,0-11-.27-33.51,8.07-48.34,26.21C12,641,11.29,676,26.22,708.13l34.72,53.79,2.38-32a98.09,98.09,0,0,1-21.44-35.06c-4.21-12.1-13.19-37.92.68-59.92,9.81-15.57,26.13-21.39,33.7-23.49l51.06.68a20.43,20.43,0,0,1,3.75.34c16.61,3.16,24.08,27.37,25.53,32.34Z" transform="translate(-14.8 -575.32)"/><polygon class="cls-4" points="180.45 136.18 248.92 45.13 263.22 59.91 186.92 197.29 180.45 136.18"/><polygon class="cls-5" points="179.3 136.31 248.92 45.13 257.36 53.86 183.56 184.65 179.3 136.31"/><path class="cls-5" d="M68.16,647.54l-14,152.15s-2.7,15.88,12,20.17c0,0,41.37,12,95.49,5.61,0,0,41.53-2,39.48-20.87S189.06,651,189.06,651Z" transform="translate(-14.8 -575.32)"/><path class="cls-6" d="M130.55,645.89,122.83,798s-26.2,22.61-18.09,26.9c0,0,48.45,6.56,79.28-2a28.8,28.8,0,0,0,20.91-18.56c6.56-17.75-9.42-158.08-9.42-158.08Z" transform="translate(-14.8 -575.32)"/><path class="cls-4" d="M80.35,650.08,69.76,802.23s-2.05,15.88,9.08,20.17a443,443,0,0,0,72.62,4.79s32.45.32,30.91-18.58-10.55-155.12-10.55-155.12Z" transform="translate(-14.8 -575.32)"/><ellipse class="cls-5" cx="117" cy="71.73" rx="63.45" ry="14.88"/><path class="cls-7" d="M68.35,647.05c0,5.91,14.69,11,36,13.42,6.23-3.88,9.84-8.48,9.84-13.42s-3.61-9.53-9.84-13.42C83,636,68.35,641.14,68.35,647.05Z" transform="translate(-14.8 -575.32)"/><path class="cls-4" d="M158.22,606.36s-12-13-29.75-14.42-52,0-52,0c-.9,0-2.23,0-3.83.12C45,594.18,27,621.82,25.07,624.87,4.44,657.6,21,696.17,22.51,699.55l35,60.37,1.12-12.12A121.13,121.13,0,0,1,40.51,719c-5.77-12.93-15.39-34.5-9.19-60.64,2.09-8.81,9.13-31.39,31.15-45.7a71.35,71.35,0,0,1,29.11-10.73l51.32.13S146.85,601.64,158.22,606.36Z" transform="translate(-14.8 -575.32)"/><path class="cls-8" d="M165.08,701.64h-25c-11.11.77-22.42,4.17-31.72,13.47C98.38,725.06,95,737.22,95.25,749V771.6h22.57c14.45-1,27.64-6.13,33.92-13.09,8.85-9.8,12.79-17.63,13.34-31.85h0Z" transform="translate(-14.8 -575.32)"/><path class="cls-9" d="M165.08,701.64H144.14c-9.3.64-18.77,3.49-26.55,11.28-8.33,8.33-11.17,18.5-11,28.38v18.9h18.9c12.09-.86,23.13-5.13,28.39-11,7.4-8.21,10.7-14.76,11.16-26.66h0Z" transform="translate(-14.8 -575.32)"/><path class="cls-10" d="M110.34,751.34,95.27,766.41v5.19h7.53L117,757.45l35.35.44s7.24-9,7.33-9.88-31.59-.07-31.59-.07l9.36-9.36h26.07l1.61-10.21H146.76l18.47-18.47v-8.26L158,702l-17,17.91V702l-10.59,1.11v26.67l-10.7,10.7c.08.06,0-33.51,0-33.51l-9.17,6.15Z" transform="translate(-14.8 -575.32)"/></svg>