<svg id="Capa_5" data-name="Capa 5" xmlns="http://www.w3.org/2000/svg" viewBox="0 0 311.69 318.1"><defs><style>.cls-1{fill:#e21c3e;}.cls-2{fill:#1f6188;}.cls-3{fill:#ffd31c;}</style></defs><title>temperatura</title><rect class="cls-1" x="-40.12" y="142.48" width="432.93" height="19" rx="9.5" transform="translate(-76.32 179.48) rotate(-45)"/><path class="cls-2" d="M329.08,134.17h0a10.17,10.17,0,0,0-12.43-7.26l-20.91,5.49,9.32-18.87a9.83,9.83,0,0,0-4.46-13.16h0A10.18,10.18,0,0,0,287,105l-16.86,34.15-56.88,14.94-37.6,35.32a.59.59,0,0,0-.13.23l-13.39,54.07a6.86,6.86,0,0,1-3.23,4.28l-32.35,18.58a10.69,10.69,0,0,0-4,14.6h0a9.3,9.3,0,0,0,12.7,3.43l19.42-11.15s0,0,0,0l-4.58,18.48A10,10,0,0,0,157.45,304h0a10,10,0,0,0,12.13-7.31l4.56-18.42s0,0,0,0l11.28,17.88a10.16,10.16,0,0,0,14,3.18h0a9.85,9.85,0,0,0,3.07-13.58l-20.17-32a6.81,6.81,0,0,1-.85-5.28l12-48.48,8.73-8.2,40.3,40.31a6.81,6.81,0,0,1,2,4.82v38.29a6.82,6.82,0,0,0,6.82,6.83h6.35a6.83,6.83,0,0,0,6.83-6.83V254.19s0,0,0,0l14.76,14.76a9.75,9.75,0,0,0,13.81,0h0a10.22,10.22,0,0,0,0-14.47L278.73,240a0,0,0,0,1,0,0h21.83a9.07,9.07,0,0,0,9.06-9.07v-1.35a9.57,9.57,0,0,0-9.57-9.58H261.52a6.84,6.84,0,0,1-4.83-2l-39.86-39.86,6.4-6,52-13.67L306,178.74a9.93,9.93,0,0,0,13.77-2.83l.16-.23a9.79,9.79,0,0,0-2.79-13.55l-15.92-10.5,20.82-5.47A9.81,9.81,0,0,0,329.08,134.17Z" transform="translate(-20.5 10.27)"/><path class="cls-3" d="M204.06,95.68a55.33,55.33,0,0,0-29.58-10.47c-31.55-1.64-58.5,23.67-60.21,56.53a61.12,61.12,0,0,0,7,31.86Z" transform="translate(-20.5 10.27)"/><path class="cls-3" d="M91.23,194.24,55.37,219.37a7.09,7.09,0,0,1-10.16-2.19l-6-10.15A7.08,7.08,0,0,1,42.26,197l39.84-18.6a7.1,7.1,0,0,1,9.18,2.93l2,3.63A7.09,7.09,0,0,1,91.23,194.24Z" transform="translate(-20.5 10.27)"/><path class="cls-3" d="M74.77,148.67,29,152.26a7.6,7.6,0,0,1-8-7.67l-.08-12.81A7.49,7.49,0,0,1,29,124.12l45.89,4.7a7.64,7.64,0,0,1,6.74,7.81l-.06,4.52A7.54,7.54,0,0,1,74.77,148.67Z" transform="translate(-20.5 10.27)"/><path class="cls-3" d="M82.26,100.24,39.63,80.36c-4-1.87-5.45-7.06-3.12-11.28L43.18,57c2.37-4.28,7.6-5.7,11.27-3.05L92.84,81.7c3.23,2.33,4,7,1.89,10.75l-2.44,4.21A7.88,7.88,0,0,1,82.26,100.24Z" transform="translate(-20.5 10.27)"/><path class="cls-3" d="M111.63,60.27,89.16,22.69c-2.12-3.54-.48-8.31,3.56-10.37l11.56-5.88c4.11-2.09,8.92-.47,10.35,3.48l15,41.47c1.27,3.49-.58,7.55-4.24,9.33l-4.12,2A7.38,7.38,0,0,1,111.63,60.27Z" transform="translate(-20.5 10.27)"/><path class="cls-3" d="M156.6,43.56,155.26-2.56c-.12-4.34,3.85-7.89,8.64-7.7l13.72.53c4.87.18,8.48,4.15,7.76,8.52l-7.54,45.87c-.64,3.86-4.44,6.65-8.73,6.4l-4.84-.28C160,50.53,156.72,47.41,156.6,43.56Z" transform="translate(-20.5 10.27)"/><path class="cls-3" d="M207.57,50.17,226,10.41c1.74-3.75,7-4.89,11.47-2.49l12.76,6.89c4.53,2.45,6.25,7.5,3.7,10.87L227.2,61.06c-2.25,3-7,3.56-11,1.34l-4.46-2.51C207.84,57.69,206,53.49,207.57,50.17Z" transform="translate(-20.5 10.27)"/></svg>