<svg xmlns="http://www.w3.org/2000/svg" viewBox="0 0 157.1 262.33"><defs><style>.cls-1{isolation:isolate;}.cls-2,.cls-3{fill:#828282;}.cls-3,.cls-4,.cls-5{opacity:0.5;}.cls-3,.cls-4{mix-blend-mode:screen;}.cls-5{mix-blend-mode:multiply;}</style></defs><title>wait_plant</title><g class="cls-1"><g id="OBJECTS"><path class="cls-2" d="M280.24,454.57a8.13,8.13,0,0,1-5.78,7.16l0,0a58.75,58.75,0,0,1-17.12,2.56,58,58,0,0,1-13.8-1.67c-1.11-.26-2.21-.56-3.3-.89a8.14,8.14,0,0,1-5.73-7.14c-1.07-13.36-3.61-46.84-3-54.09a21.2,21.2,0,0,1,5.47-12.11,11.39,11.39,0,0,0,2.82-7.53v-8.27h35.17v8.27a11.3,11.3,0,0,0,2.81,7.52,21.17,21.17,0,0,1,5.47,12.12C283.74,407.76,281.27,441.18,280.24,454.57Z" transform="translate(-178.75 -201.97)"/><path class="cls-3" d="M239.25,399.33c-1.83,7.15-1.92,14.64-1.62,22a209.26,209.26,0,0,0,5.87,41.29c-1.11-.26-2.21-.56-3.3-.89a8.14,8.14,0,0,1-5.73-7.14c-1.07-13.36-3.61-46.84-3-54.09a21.2,21.2,0,0,1,5.47-12.11,11.39,11.39,0,0,0,2.82-7.53v-8.27h4.55c1,4,.57,8.44-.5,12.54C242.51,390,240.5,394.53,239.25,399.33Z" transform="translate(-178.75 -201.97)"/><path class="cls-2" d="M274.89,372.61c0,1.17-5.47,2.16-12.91,2.46l-1.09,0h-.29c-.37,0-.73,0-1.11,0H257.3l-2.29,0-1.4,0c-7.94-.25-13.89-1.27-13.89-2.49s5.86-2.25,13.71-2.5c.45,0,.92,0,1.4,0,.74,0,1.49,0,2.26,0h2l1.37,0h0l1.35,0C269.35,370.42,274.89,371.42,274.89,372.61Z" transform="translate(-178.75 -201.97)"/><path class="cls-2" d="M272.29,372.61c0,.27-.36.53-1,.77-2.14.82-7.62,1.39-14,1.39s-11.85-.57-14-1.39c-.62-.24-1-.5-1-.77,0-1.2,6.7-2.19,15-2.19S272.29,371.41,272.29,372.61Z" transform="translate(-178.75 -201.97)"/><path class="cls-2" d="M271.3,373.38c-1.58.62-5.05,1.08-9.35,1.29l-1.09.05h-.27l-1.13,0H257.3l-2.3,0c-.48,0-.95,0-1.4-.05-4.75-.17-8.58-.66-10.29-1.32,1.7-.82,5.49-1.45,10.17-1.66.46,0,.93-.05,1.4-.06.78,0,1.57,0,2.38,0h2l1.25,0h.14l1.24.06C266.21,372,269.71,372.61,271.3,373.38Z" transform="translate(-178.75 -201.97)"/><path class="cls-2" d="M273.12,295c-.07.24-.16.48-.25.71s-.1.35-.17.53v0l2.37,5.28-3-3.25c-1.67,5.58-3.15,13.19,1.43,16.87,4.13,3.3,12-1.12,16.43-3.39.27-.16.56-.29.82-.43s.51-.25.74-.37l-2.26-1.34-2.09-1.24,1.92.35,5,.88a87.17,87.17,0,0,0,17.71-12.79l-4.14-2.41,6.14.46a82.59,82.59,0,0,0,7.87-9c1.49-2,2.89-4,4.23-6.13l-6.41.9-.53.06,1.18-.59,0,0,7.8-3.84v0a81.59,81.59,0,0,0,4.28-8.83s0,0,0,0a8,8,0,0,0,.34-.8,50.84,50.84,0,0,0,2.5-7.82l-3.95-1.5,4.51-1.76a28.34,28.34,0,0,0,.2-4.6,19,19,0,0,0-5.52-12.86,15.12,15.12,0,0,0-1.39-1.12,13.79,13.79,0,0,0-3.83-2,20,20,0,0,0-14.9,1.35,24.14,24.14,0,0,0-3.1,1.8l.34,5.6-2.52-4a41.85,41.85,0,0,0-6.16,6.11v0c-.53.61-1,1.22-1.53,1.83l.08,2.05v0l.09,1.79-.44-.71-.95-1.57-.18.25c-2,2.64-3.83,5.36-5.6,8.13l1.88,7.82-3.64-4.89c-1.83,3.08-3.53,6.21-5.13,9.41l1.26,6.54L281.86,273A191.48,191.48,0,0,0,273.12,295Z" transform="translate(-178.75 -201.97)"/><g class="cls-4"><path class="cls-2" d="M298.75,245.82v0c-.51,1.27-1,2.56-1.45,3.88v0c-.11.37-.24.71-.35,1.08a76.67,76.67,0,0,0-3.42,28.62v0c.09,1.07.19,2.15.31,3.24a8.53,8.53,0,0,0,1.63,4.78,3.78,3.78,0,0,0,.86.78c1.37.87,3.14.74,4.72.48a41.87,41.87,0,0,0,18.43-8.09c.22-.19.43-.35.65-.53l0,0a50.82,50.82,0,0,0,6.3-5.69,66.91,66.91,0,0,0,5.79-7s0,0,0,0a8,8,0,0,0,.34-.8,50.84,50.84,0,0,0,2.5-7.82l-3.95-1.5,4.51-1.76a28.34,28.34,0,0,0,.2-4.6,19,19,0,0,0-5.52-12.86,15.12,15.12,0,0,0-1.39-1.12,13.79,13.79,0,0,0-3.83-2,20,20,0,0,0-14.9,1.35,24.14,24.14,0,0,0-3.1,1.8l.34,5.6-2.52-4A41.85,41.85,0,0,0,298.75,245.82Z" transform="translate(-178.75 -201.97)"/></g><g class="cls-5"><path class="cls-2" d="M272.87,295.69c-.06.15-.1.35-.17.53v0l2.37,5.28-3-3.25c-1.67,5.58-3.15,13.19,1.43,16.87,4.13,3.3,12-1.12,16.43-3.39a8.53,8.53,0,0,1-.7-2.14c-.07-.29-.11-.57-.17-.89-.62-5.32,2.05-12.9,6.38-21.22,10-19.28,28.89-42.33,34.87-49.45a15.12,15.12,0,0,0-1.39-1.12,13.79,13.79,0,0,0-3.83-2c-5,8.13-18.44,29.42-31.58,44.49v0C286,288.2,278.49,294.85,272.87,295.69Z" transform="translate(-178.75 -201.97)"/></g><path class="cls-2" d="M273.49,314.52a.66.66,0,0,1-.4-.13.7.7,0,0,1-.17-1L327.5,236a.68.68,0,0,1,1-.17.69.69,0,0,1,.17,1l-54.57,77.47A.69.69,0,0,1,273.49,314.52Z" transform="translate(-178.75 -201.97)"/><path class="cls-2" d="M313.78,257a.35.35,0,0,1-.34-.29l-3.37-20.27a.35.35,0,0,1,.69-.12l3.37,20.27a.35.35,0,0,1-.29.4Z" transform="translate(-178.75 -201.97)"/><path class="cls-2" d="M305.06,269.35a.34.34,0,0,1-.33-.26l-6-22.52a.34.34,0,0,1,.25-.42.36.36,0,0,1,.43.24l6,22.52a.35.35,0,0,1-.25.43Z" transform="translate(-178.75 -201.97)"/><path class="cls-2" d="M291,289.3a.34.34,0,0,1-.34-.26l-5.27-22.55a.37.37,0,0,1,.26-.42.36.36,0,0,1,.42.26l5.27,22.55a.37.37,0,0,1-.26.42Z" transform="translate(-178.75 -201.97)"/><path class="cls-2" d="M282.81,301a.34.34,0,0,1-.33-.25c-1.93-6.08-4.9-15.29-5.25-16a.36.36,0,0,1,0-.41.36.36,0,0,1,.49-.1c.13.09.36.24,5.44,16.26a.34.34,0,0,1-.23.44Z" transform="translate(-178.75 -201.97)"/><path class="cls-2" d="M310.41,261.87a.35.35,0,0,1,0-.7l24.08-.51h0a.34.34,0,0,1,.34.34.34.34,0,0,1-.34.36l-24.08.51Z" transform="translate(-178.75 -201.97)"/><path class="cls-2" d="M270.72,283.06c-.11.23-.19.46-.28.7s-.15.33-.21.51v0L265,286.76l4.38-.52c-2.36,5.32-6.2,12.06-12.07,11.87-5.28-.18-8.38-8.65-10.26-13.26-.1-.3-.23-.59-.34-.86s-.23-.53-.32-.77l2.58.46,2.39.42-1.68-1-4.36-2.58a87.29,87.29,0,0,1-5.11-21.25l4.71.87L240,256.51a79.21,79.21,0,0,1-.14-11.93c.15-2.48.41-4.93.77-7.4l4.28,4.85.36.4-.51-1.22v0l-3.42-8v0a83.28,83.28,0,0,1,2.5-9.49s0,0,0,0c.07-.27.18-.56.27-.82a51.26,51.26,0,0,1,3.19-7.56l4,1.43L249,212.4a26.08,26.08,0,0,1,2.84-3.61,19,19,0,0,1,12.56-6.18,17.8,17.8,0,0,1,1.78,0,14.36,14.36,0,0,1,4.19,1,20,20,0,0,1,10.43,10.73,22.61,22.61,0,0,1,1.18,3.38l-3.9,4,4.52-1.39a43,43,0,0,1,.7,8.64v0c0,.8,0,1.59,0,2.38l-1.4,1.5v0l-1.24,1.3.8-.25,1.75-.58c0,.12,0,.2,0,.32-.21,3.29-.59,6.55-1.05,9.81l-6.51,4.72L281.5,247c-.62,3.53-1.37,7-2.24,10.48l-5.21,4.15,4.34-.92A191.08,191.08,0,0,1,270.72,283.06Z" transform="translate(-178.75 -201.97)"/><g class="cls-4"><path class="cls-2" d="M283.28,229.06v0c-.44,1.29-.91,2.6-1.43,3.88v0c-.16.36-.28.7-.44,1.05a76.65,76.65,0,0,1-16,23.95v0c-.78.75-1.55,1.51-2.35,2.25a8.54,8.54,0,0,1-4.35,2.57,3.76,3.76,0,0,1-1.16,0c-1.61-.22-2.87-1.48-3.91-2.71A42.08,42.08,0,0,1,244.87,242c0-.28-.1-.54-.15-.82v0a52,52,0,0,1-1.08-8.42,67.29,67.29,0,0,1,.17-9.09s0,0,0,0c.07-.27.18-.56.27-.82a51.26,51.26,0,0,1,3.19-7.56l4,1.43L249,212.4a26.08,26.08,0,0,1,2.84-3.61,19,19,0,0,1,12.56-6.18,17.8,17.8,0,0,1,1.78,0,14.36,14.36,0,0,1,4.19,1,20,20,0,0,1,10.43,10.73,22.61,22.61,0,0,1,1.18,3.38l-3.9,4,4.52-1.39A43,43,0,0,1,283.28,229.06Z" transform="translate(-178.75 -201.97)"/></g><g class="cls-5"><path class="cls-2" d="M270.44,283.76c-.05.16-.15.33-.21.51v0L265,286.76l4.38-.52c-2.36,5.32-6.2,12.06-12.07,11.87-5.28-.18-8.38-8.65-10.26-13.26a8.6,8.6,0,0,0,1.92-1.17c.25-.18.46-.37.71-.57,3.94-3.64,6.84-11.13,9-20.26,4.93-21.17,5.63-50.94,5.73-60.24a17.8,17.8,0,0,1,1.78,0,14.36,14.36,0,0,1,4.19,1c-1.5,9.42-5.15,34.33-5,54.33v0C265.39,269.56,266.73,279.47,270.44,283.76Z" transform="translate(-178.75 -201.97)"/></g><path class="cls-2" d="M260.62,371.69c.08,1.09.16,2.09.24,3h-.27l-1.13,0c-.07-1-.15-2-.23-3.1-.05-.51-.09-1-.14-1.6-1.36-16.94-3.68-46.54-3.92-53.71-.35-10.17,9.86-109.52,10.29-113.75a.71.71,0,0,1,.77-.61.69.69,0,0,1,.63.76c-.12,1-10.65,103.48-10.31,113.56.25,7.1,2.54,36.39,3.91,53.38v0c0,.13,0,.25,0,.38C260.54,370.63,260.57,371.18,260.62,371.69Z" transform="translate(-178.75 -201.97)"/><path class="cls-2" d="M263.66,227.73a.35.35,0,0,1-.29-.15l-12.21-17.47a.35.35,0,1,1,.57-.39l12.21,17.46a.34.34,0,0,1-.28.55Z" transform="translate(-178.75 -201.97)"/><path class="cls-2" d="M262.23,242.16a.35.35,0,0,1-.25-.1L243.56,224a.35.35,0,0,1,0-.49.34.34,0,0,1,.49,0l18.43,18.09a.34.34,0,0,1,0,.49A.31.31,0,0,1,262.23,242.16Z" transform="translate(-178.75 -201.97)"/><path class="cls-2" d="M260.41,260.83a.4.4,0,0,1-.22-.08l-19.9-16.24a.34.34,0,1,1,.44-.53l19.9,16.23a.35.35,0,0,1,.05.49A.34.34,0,0,1,260.41,260.83Z" transform="translate(-178.75 -201.97)"/><path class="cls-2" d="M263.42,233.68a.35.35,0,0,1-.31-.18.35.35,0,0,1,.14-.47l19.06-10.2a.35.35,0,1,1,.33.61l-19.06,10.2A.32.32,0,0,1,263.42,233.68Z" transform="translate(-178.75 -201.97)"/><path class="cls-2" d="M261.13,251.78a.35.35,0,0,1-.3-.17.35.35,0,0,1,.12-.48l21.34-12.95a.35.35,0,0,1,.36.6l-21.34,12.95A.41.41,0,0,1,261.13,251.78Z" transform="translate(-178.75 -201.97)"/><path class="cls-2" d="M259.39,271.65a.34.34,0,0,1-.33-.22.35.35,0,0,1,.21-.45l17.14-6.22a.35.35,0,0,1,.24.66l-17.15,6.21A.2.2,0,0,1,259.39,271.65Z" transform="translate(-178.75 -201.97)"/><path class="cls-2" d="M246,295.66a5.29,5.29,0,0,0,.32.68c.07.15.14.34.22.51l0,0-1.77,5.5,2.61-3.56c2.29,5.35,4.6,12.76.46,16.92-3.74,3.74-12,.23-16.7-1.53-.29-.13-.59-.23-.86-.34a7.91,7.91,0,0,1-.78-.29l2.1-1.58,1.93-1.46-1.87.55-4.86,1.44a87.87,87.87,0,0,1-19-10.74l3.85-2.86-6,1.14a80,80,0,0,1-8.82-8c-1.71-1.8-3.33-3.66-4.89-5.61l6.46.18h.54l-1.24-.46h0l-8.18-2.95v0a83.55,83.55,0,0,1-5.25-8.31s0,0,0,0c-.15-.24-.29-.51-.42-.76a50.2,50.2,0,0,1-3.35-7.49l3.75-1.94-4.67-1.25a25.84,25.84,0,0,1-.71-4.54,19,19,0,0,1,4-13.4,16.75,16.75,0,0,1,1.26-1.27,13.81,13.81,0,0,1,3.59-2.37c4.52-2.15,10.16-2,15-.33a23.46,23.46,0,0,1,3.27,1.44l.29,5.61,2.07-4.25a41.67,41.67,0,0,1,6.8,5.38v0c.59.54,1.15,1.09,1.72,1.65l.15,2v0l.11,1.79.36-.75.77-1.68c.07.09.14.15.21.24,2.27,2.4,4.4,4.9,6.46,7.46l-1,8,3.08-5.27c2.16,2.86,4.19,5.78,6.14,8.78l-.52,6.64,2.29-3.8A193.26,193.26,0,0,1,246,295.66Z" transform="translate(-178.75 -201.97)"/><g class="cls-4"><path class="cls-2" d="M215.08,249.67v0c.65,1.2,1.28,2.43,1.87,3.7v0c.15.36.32.68.47,1A76.44,76.44,0,0,1,224,282.5l0,0c0,1.08,0,2.16,0,3.26a8.68,8.68,0,0,1-1.09,4.93,3.76,3.76,0,0,1-.77.87c-1.26,1-3,1.09-4.64,1a42.18,42.18,0,0,1-19.22-6l-.7-.46h0a52.17,52.17,0,0,1-6.9-4.95,68.58,68.58,0,0,1-6.54-6.33s0,0,0,0c-.15-.24-.29-.51-.42-.76a50.2,50.2,0,0,1-3.35-7.49l3.75-1.94-4.67-1.25a25.84,25.84,0,0,1-.71-4.54,19,19,0,0,1,4-13.4,16.75,16.75,0,0,1,1.26-1.27,13.81,13.81,0,0,1,3.59-2.37c4.52-2.15,10.16-2,15-.33a23.46,23.46,0,0,1,3.27,1.44l.29,5.61,2.07-4.25A41.67,41.67,0,0,1,215.08,249.67Z" transform="translate(-178.75 -201.97)"/></g><g class="cls-5"><path class="cls-2" d="M246.35,296.34c.07.15.14.34.22.51l0,0-1.77,5.5,2.61-3.56c2.29,5.35,4.6,12.76.46,16.92-3.74,3.74-12,.23-16.7-1.53a9.12,9.12,0,0,0,.46-2.21c0-.3,0-.58.06-.91,0-5.35-3.48-12.59-8.7-20.37-12.13-18.05-33.43-38.85-40.17-45.26a16.75,16.75,0,0,1,1.26-1.27,13.81,13.81,0,0,1,3.59-2.37c5.86,7.51,21.6,27.17,36.34,40.68l0,0C232.51,290.36,240.67,296.14,246.35,296.34Z" transform="translate(-178.75 -201.97)"/></g><path class="cls-2" d="M255,374.75c-.48,0-.95,0-1.4-.05,0-.89-.07-1.89-.12-3,0-.52,0-1.05,0-1.61-.59-14.73-2.07-43.38-5-53.6-4-13.84-61.71-71.2-62.29-71.77a.69.69,0,0,1,0-1,.69.69,0,0,1,1,0c2.39,2.37,58.54,58.19,62.64,72.37,3.05,10.52,4.52,39.19,5.1,53.95,0,.55,0,1.08,0,1.59C254.93,372.8,255,373.84,255,374.75Z" transform="translate(-178.75 -201.97)"/><path class="cls-2" d="M200.53,258.73H180a.35.35,0,0,1,0-.7h20.55a.35.35,0,0,1,0,.7Z" transform="translate(-178.75 -201.97)"/><path class="cls-2" d="M186.36,277.48a.34.34,0,0,1-.34-.3.34.34,0,0,1,.29-.39l28.1-4.05a.35.35,0,0,1,.4.29.36.36,0,0,1-.3.4l-28.1,4.05Z" transform="translate(-178.75 -201.97)"/><path class="cls-2" d="M198.84,292.2a.36.36,0,0,1-.35-.31.35.35,0,0,1,.31-.38L228.42,288a.35.35,0,0,1,.38.3.35.35,0,0,1-.3.39l-29.62,3.48Z" transform="translate(-178.75 -201.97)"/><path class="cls-2" d="M205.48,263.86a.34.34,0,0,1-.34-.3l-2.84-22a.35.35,0,0,1,.3-.39.34.34,0,0,1,.39.3l2.83,22a.34.34,0,0,1-.3.39Z" transform="translate(-178.75 -201.97)"/><path class="cls-2" d="M218,276.94a.34.34,0,0,1-.34-.3l-3.49-27a.35.35,0,0,1,.69-.09l3.48,27a.34.34,0,0,1-.29.39Z" transform="translate(-178.75 -201.97)"/><path class="cls-2" d="M230.18,290.68a.35.35,0,0,1-.35-.33c-.62-15.13-.89-22.93-.79-23.19a.35.35,0,0,1,.44-.21.34.34,0,0,1,.22.39c0,.73.46,14.12.83,23a.36.36,0,0,1-.34.36Z" transform="translate(-178.75 -201.97)"/><path class="cls-2" d="M232.46,333.36c.17,0,.34.06.5.09s.25,0,.38.06h0l3.29-2.14-1.87,2.34c3.92.54,9.18.74,11.17-2.72,1.78-3.12-2-7.93-4-10.67-.14-.16-.25-.34-.37-.5s-.23-.32-.33-.46L240.6,321l-.61,1.53,0-1.33.07-3.44a59.24,59.24,0,0,0-10.44-10.55l-1.18,3-.33-4.16a54.89,54.89,0,0,0-6.84-4.35c-1.49-.79-3-1.52-4.55-2.2l1.27,4.21.1.35-.52-.73v0l-3.4-4.83h0a57,57,0,0,0-6.37-1.95s0,0,0,0c-.18-.06-.39-.1-.57-.14a34.14,34.14,0,0,0-5.51-.86l-.6,2.8-1.65-2.84a18,18,0,0,0-3.1.35,12.94,12.94,0,0,0-8.06,5c-.22.34-.41.69-.61,1.05a9.75,9.75,0,0,0-.91,2.78,13.56,13.56,0,0,0,2.46,9.86,14.76,14.76,0,0,0,1.53,1.88l3.72-.81-2.42,2.11a29.16,29.16,0,0,0,4.74,3.5h0l1.38.84,1.37-.27h0l1.19-.25-.42.38-1,.8.19.09c2,1.06,4,2,6,2.91l5.05-2.08-2.9,3c2.25.9,4.53,1.71,6.84,2.45l4.26-1.52-2.08,2.18A129.9,129.9,0,0,0,232.46,333.36Z" transform="translate(-178.75 -201.97)"/><g class="cls-4"><path class="cls-2" d="M196.8,321.3h0c.9.21,1.82.41,2.75.57h0l.77.13a52.07,52.07,0,0,0,19.55-.69h0c.72-.18,1.43-.35,2.14-.55a5.84,5.84,0,0,0,3-1.59,2.58,2.58,0,0,0,.43-.66,4.54,4.54,0,0,0-.16-3.22A28.43,28.43,0,0,0,218,303.77l-.42-.38v0a35.2,35.2,0,0,0-4.48-3.63,44.49,44.49,0,0,0-5.31-3.16s0,0,0,0c-.18-.06-.39-.1-.57-.14a34.14,34.14,0,0,0-5.51-.86l-.6,2.8-1.65-2.84a18,18,0,0,0-3.1.35,12.94,12.94,0,0,0-8.06,5c-.22.34-.41.69-.61,1.05a9.75,9.75,0,0,0-.91,2.78,13.56,13.56,0,0,0,2.46,9.86,14.76,14.76,0,0,0,1.53,1.88l3.72-.81-2.42,2.11A29.16,29.16,0,0,0,196.8,321.3Z" transform="translate(-178.75 -201.97)"/></g><g class="cls-5"><path class="cls-2" d="M233,333.45c.12,0,.25,0,.38.06h0l3.29-2.14-1.87,2.34c3.92.54,9.18.74,11.17-2.72,1.78-3.12-2-7.93-4-10.67a6.22,6.22,0,0,1-1.36.7l-.58.2c-3.51,1-8.87,0-14.91-2.06-14-4.73-31.41-15-36.82-18.24-.22.34-.41.69-.61,1.05a9.75,9.75,0,0,0-.91,2.78c6,2.5,21.66,9.3,33.14,16.55h0C226.58,325.46,231.82,329.77,233,333.45Z" transform="translate(-178.75 -201.97)"/></g><path class="cls-2" d="M246.41,330.63h-.07c-12.47-1.42-57.11-27-59-28.05a.69.69,0,1,1,.69-1.2c.46.26,46.29,26.48,58.46,27.87a.68.68,0,0,1,.61.76A.69.69,0,0,1,246.41,330.63Z" transform="translate(-178.75 -201.97)"/><path class="cls-2" d="M190,314.61a.35.35,0,0,1-.34-.27.34.34,0,0,1,.26-.41l14-3.26a.36.36,0,0,1,.42.26.35.35,0,0,1-.26.42l-14,3.25Z" transform="translate(-178.75 -201.97)"/><path class="cls-2" d="M203.28,324.49a.35.35,0,0,1-.2-.63L213.9,316a.35.35,0,0,1,.49.08.34.34,0,0,1-.08.48l-10.82,7.82A.33.33,0,0,1,203.28,324.49Z" transform="translate(-178.75 -201.97)"/><path class="cls-2" d="M221,330.28a.37.37,0,0,1-.31-.17.35.35,0,0,1,.13-.47l9.64-5.56a.34.34,0,0,1,.47.13.34.34,0,0,1-.12.47l-9.64,5.56A.38.38,0,0,1,221,330.28Z" transform="translate(-178.75 -201.97)"/><path class="cls-2" d="M235.28,326.73a.35.35,0,0,1-.34-.27l-3.66-16.87a.35.35,0,0,1,.27-.41.34.34,0,0,1,.41.27l3.66,16.86a.34.34,0,0,1-.27.41Z" transform="translate(-178.75 -201.97)"/><path class="cls-2" d="M224.4,321.81a.35.35,0,0,1-.34-.29l-3.38-19a.37.37,0,0,1,.28-.41.36.36,0,0,1,.41.29l3.38,19a.35.35,0,0,1-.29.4Z" transform="translate(-178.75 -201.97)"/><path class="cls-2" d="M216.21,317.75a.36.36,0,0,1-.32-.21l-9.14-21a.33.33,0,0,1,.18-.45.34.34,0,0,1,.46.18l9.14,21a.34.34,0,0,1-.18.46A.35.35,0,0,1,216.21,317.75Z" transform="translate(-178.75 -201.97)"/><path class="cls-2" d="M198.84,308.55a.33.33,0,0,1-.32-.22l-4.25-10.73a.34.34,0,0,1,.19-.45.33.33,0,0,1,.45.19l4.25,10.73a.35.35,0,0,1-.19.46Z" transform="translate(-178.75 -201.97)"/><path class="cls-2" d="M244.06,338.14a5.93,5.93,0,0,1,.31.68c.07.15.17.32.24.5v0l5.33,2.24-4.4-.34c2.58,5.22,6.71,11.79,12.56,11.35,5.27-.41,8-9,9.69-13.69.09-.3.21-.59.31-.87s.2-.53.28-.78l-2.56.57-2.37.52,1.64-1.06,4.24-2.76a87.2,87.2,0,0,0,4.21-21.45l-4.67,1.07,4.79-3.85a79,79,0,0,0-.37-11.92c-.26-2.48-.62-4.91-1.08-7.36l-4.07,5-.35.41.46-1.23v0l3.08-8.13v0a82.74,82.74,0,0,0-2.91-9.38s0,0,0,0a7.71,7.71,0,0,0-.3-.8,50.43,50.43,0,0,0-3.51-7.43L260.7,271l2.09-4.36a27.07,27.07,0,0,0-3-3.5A19.06,19.06,0,0,0,247,257.49a15.54,15.54,0,0,0-1.78.13,13.8,13.8,0,0,0-4.14,1.18,20.08,20.08,0,0,0-10,11.16,24,24,0,0,0-1,3.43l4.07,3.86-4.57-1.2a41.81,41.81,0,0,0-.33,8.67v0c0,.8.08,1.59.13,2.38l1.46,1.45v0l1.29,1.25-.81-.21-1.77-.51c0,.11,0,.2,0,.31.35,3.28.87,6.52,1.47,9.76l6.71,4.44-6-1.09q1.16,5.23,2.68,10.37l5.39,3.93-4.38-.74A192,192,0,0,0,244.06,338.14Z" transform="translate(-178.75 -201.97)"/><g class="cls-4"><path class="cls-2" d="M229.23,284.72v0c.49,1.27,1,2.56,1.59,3.83v0c.17.35.31.69.48,1a76.85,76.85,0,0,0,17,23.24v0c.8.73,1.61,1.45,2.44,2.16a8.65,8.65,0,0,0,4.46,2.38,3.48,3.48,0,0,0,1.16,0c1.59-.29,2.8-1.6,3.78-2.87a42,42,0,0,0,7.94-18.5c0-.28.07-.54.11-.82v0a51.22,51.22,0,0,0,.72-8.46,65.69,65.69,0,0,0-.56-9.08s0,0,0,0a7.71,7.71,0,0,0-.3-.8,50.43,50.43,0,0,0-3.51-7.43L260.7,271l2.09-4.36a27.07,27.07,0,0,0-3-3.5A19.06,19.06,0,0,0,247,257.49a15.54,15.54,0,0,0-1.78.13,13.8,13.8,0,0,0-4.14,1.18,20.08,20.08,0,0,0-10,11.16,24,24,0,0,0-1,3.43l4.07,3.86-4.57-1.2A41.81,41.81,0,0,0,229.23,284.72Z" transform="translate(-178.75 -201.97)"/></g><g class="cls-5"><path class="cls-2" d="M244.37,338.82c.07.15.17.32.24.5v0l5.33,2.24-4.4-.34c2.58,5.22,6.71,11.79,12.56,11.35,5.27-.41,8-9,9.69-13.69a8.68,8.68,0,0,1-2-1.08c-.25-.17-.48-.35-.73-.54-4.09-3.47-7.31-10.83-9.83-19.86-5.83-20.95-7.79-50.65-8.29-59.94a15.54,15.54,0,0,0-1.78.13,13.8,13.8,0,0,0-4.14,1.18c1.9,9.34,6.61,34.08,7.3,54.07v0C248.82,324.42,247.9,334.38,244.37,338.82Z" transform="translate(-178.75 -201.97)"/></g><path class="cls-2" d="M259,374.76h-1.39c-.11-1-.22-2.08-.33-3.14-.06-.53-.12-1.06-.17-1.59C251.44,318.1,243,258.66,242.87,258a.69.69,0,1,1,1.37-.2c.1.63,8.6,60.2,14.24,112.21,0,.53.11,1.06.17,1.59C258.77,372.69,258.88,373.72,259,374.76Z" transform="translate(-178.75 -201.97)"/><path class="cls-2" d="M247,282.88a.34.34,0,0,1-.23-.08L231.4,270a.35.35,0,0,1,.44-.54l15.34,12.83a.35.35,0,0,1-.22.61Z" transform="translate(-178.75 -201.97)"/><path class="cls-2" d="M249,297.82a.34.34,0,0,1-.21-.08l-19.09-14.93a.35.35,0,0,1-.06-.49.36.36,0,0,1,.49-.06l19.09,14.94a.35.35,0,0,1,.06.48A.37.37,0,0,1,249,297.82Z" transform="translate(-178.75 -201.97)"/><path class="cls-2" d="M252.48,325.23a.35.35,0,0,1-.25-.1l-19-18.68a.35.35,0,0,1,0-.49.34.34,0,0,1,.49,0l19,18.67a.35.35,0,0,1,0,.5A.33.33,0,0,1,252.48,325.23Z" transform="translate(-178.75 -201.97)"/><path class="cls-2" d="M254.43,341.19a.3.3,0,0,1-.18-.06l-10.88-6.81a.34.34,0,0,1-.11-.48.35.35,0,0,1,.48-.11l10.88,6.81a.35.35,0,0,1-.19.65Z" transform="translate(-178.75 -201.97)"/><path class="cls-2" d="M245.83,274.59a.32.32,0,0,1-.14,0,.35.35,0,0,1-.18-.46l6.65-14.83a.35.35,0,1,1,.63.29l-6.65,14.82A.34.34,0,0,1,245.83,274.59Z" transform="translate(-178.75 -201.97)"/><path class="cls-2" d="M248.31,293a.33.33,0,0,1-.23-.09.35.35,0,0,1,0-.49l17.85-19.54a.36.36,0,0,1,.5,0,.35.35,0,0,1,0,.49l-17.85,19.54A.38.38,0,0,1,248.31,293Z" transform="translate(-178.75 -201.97)"/><path class="cls-2" d="M251.08,314.17a.36.36,0,0,1-.26-.11.34.34,0,0,1,0-.49L272,294.73a.34.34,0,1,1,.46.51l-21.19,18.84A.35.35,0,0,1,251.08,314.17Z" transform="translate(-178.75 -201.97)"/><path class="cls-2" d="M253.72,335.31a.34.34,0,0,1-.25-.11.35.35,0,0,1,0-.49L272,317.23a.34.34,0,0,1,.49,0,.35.35,0,0,1,0,.49L254,335.22A.36.36,0,0,1,253.72,335.31Z" transform="translate(-178.75 -201.97)"/><path class="cls-2" d="M264.33,323.53a5.28,5.28,0,0,1-.29.69c-.07.16-.12.34-.2.52l0,0,2,5.42-2.76-3.45c-2.06,5.45-4.05,12.95.26,16.93,3.89,3.58,12-.28,16.62-2.23.28-.15.58-.26.85-.38s.53-.21.76-.32l-2.16-1.49-2-1.38,1.9.48,4.91,1.23A87.42,87.42,0,0,0,302.76,328l-4-2.69,6.08.89a81,81,0,0,0,8.48-8.4C315,316,316.52,314,318,312l-6.46.45-.53,0,1.21-.51,0,0,8.05-3.29v0a85.67,85.67,0,0,0,4.89-8.52s0,0,0,0c.14-.24.27-.52.39-.77a51.13,51.13,0,0,0,3-7.63L324.82,290l4.62-1.45a26.88,26.88,0,0,0,.52-4.57,19,19,0,0,0-4.61-13.21,16.73,16.73,0,0,0-1.3-1.22,14,14,0,0,0-3.69-2.22,20,20,0,0,0-15,.3,24,24,0,0,0-3.22,1.58l-.05,5.61-2.24-4.16a43,43,0,0,0-6.57,5.66v0c-.57.56-1.11,1.14-1.65,1.71l-.06,2.06v0l0,1.8-.39-.74-.83-1.64-.21.24c-2.16,2.49-4.18,5.08-6.14,7.73l1.32,7.93L282,290.27c-2,3-3.95,6-5.77,9l.8,6.62-2.45-3.71A192.41,192.41,0,0,0,264.33,323.53Z" transform="translate(-178.75 -201.97)"/><g class="cls-4"><path class="cls-2" d="M293.32,276.27v0c-.6,1.22-1.18,2.48-1.71,3.77v0c-.14.37-.29.7-.43,1.06a76.92,76.92,0,0,0-5.41,28.31v0c0,1.09,0,2.17.09,3.26a8.66,8.66,0,0,0,1.29,4.89,3.74,3.74,0,0,0,.81.83c1.3,1,3.08,1,4.68.81a42,42,0,0,0,18.94-6.79l.68-.48,0,0a51.38,51.38,0,0,0,6.68-5.24,68.5,68.5,0,0,0,6.27-6.59s0,0,0,0c.14-.24.27-.52.39-.77a51.13,51.13,0,0,0,3-7.63L324.82,290l4.62-1.45a26.88,26.88,0,0,0,.52-4.57,19,19,0,0,0-4.61-13.21,16.73,16.73,0,0,0-1.3-1.22,14,14,0,0,0-3.69-2.22,20,20,0,0,0-15,.3,24,24,0,0,0-3.22,1.58l-.05,5.61-2.24-4.16A43,43,0,0,0,293.32,276.27Z" transform="translate(-178.75 -201.97)"/></g><g class="cls-5"><path class="cls-2" d="M264,324.22c-.07.16-.12.34-.2.52l0,0,2,5.42-2.76-3.45c-2.06,5.45-4.05,12.95.26,16.93,3.89,3.58,12-.28,16.62-2.23a9,9,0,0,1-.55-2.19c-.05-.3-.07-.58-.1-.9-.25-5.36,2.94-12.73,7.83-20.72,11.36-18.55,31.77-40.22,38.23-46.91a16.73,16.73,0,0,0-1.3-1.22,14,14,0,0,0-3.69-2.22c-5.55,7.75-20.45,28.05-34.61,42.18v0C277.61,317.67,269.7,323.78,264,324.22Z" transform="translate(-178.75 -201.97)"/></g><path class="cls-2" d="M323.17,269c-.56.59-55.88,59.25-59.18,74.85-1.93,9.19-2.23,19.39-2.15,26.3,0,.57,0,1.11,0,1.63,0,1.08.07,2.08.09,2.92l-1.09.05h-.27c0-.88-.08-1.91-.11-3.05,0-.51,0-1,0-1.59v-.41a126.13,126.13,0,0,1,2.18-26.15c3.37-16,57.22-73.09,59.51-75.52a.69.69,0,0,1,1,0A.69.69,0,0,1,323.17,269Z" transform="translate(-178.75 -201.97)"/><path class="cls-2" d="M309.19,283.49a.34.34,0,0,1-.35-.33l-.9-15.86a.34.34,0,0,1,.32-.37.36.36,0,0,1,.37.33l.91,15.86a.35.35,0,0,1-.33.37Z" transform="translate(-178.75 -201.97)"/><path class="cls-2" d="M297.44,296.75a.35.35,0,0,1-.35-.31L295,275.12a.35.35,0,0,1,.31-.38.33.33,0,0,1,.38.31l2.07,21.32a.35.35,0,0,1-.31.38Z" transform="translate(-178.75 -201.97)"/><path class="cls-2" d="M282,315.13a.36.36,0,0,1-.35-.3l-2.44-20.89a.36.36,0,0,1,.31-.39.35.35,0,0,1,.38.31l2.45,20.89a.35.35,0,0,1-.31.38Z" transform="translate(-178.75 -201.97)"/><path class="cls-2" d="M303.54,289.8a.35.35,0,0,1-.09-.68l26.4-6.92a.33.33,0,0,1,.42.25.34.34,0,0,1-.24.42l-26.4,6.92Z" transform="translate(-178.75 -201.97)"/><path class="cls-2" d="M291.89,303.2a.35.35,0,0,1,0-.69l31.28-.36h0a.34.34,0,0,1,.34.34.35.35,0,0,1-.34.35l-31.28.36Z" transform="translate(-178.75 -201.97)"/><path class="cls-2" d="M300.78,329a.25.25,0,0,1-.12,0L277.32,321a.34.34,0,1,1,.23-.65l23.34,8.06a.35.35,0,0,1,.22.44A.36.36,0,0,1,300.78,329Z" transform="translate(-178.75 -201.97)"/><path class="cls-2" d="M288.41,337.2h-.06l-20-3.6a.34.34,0,0,1-.28-.4.34.34,0,0,1,.41-.28l20,3.59a.37.37,0,0,1,.28.41A.35.35,0,0,1,288.41,337.2Z" transform="translate(-178.75 -201.97)"/></g></g></svg>